<svg xmlns="http://www.w3.org/2000/svg" viewBox="0 0 100 100" width="100" height="100">
  <defs>
    <linearGradient id="bg" x1="0%" y1="0%" x2="100%" y2="100%">
      <stop offset="0%" style="stop-color:#C8925A"/>
      <stop offset="100%" style="stop-color:#A67845"/>
    </linearGradient>
  </defs>
  <circle cx="50" cy="50" r="48" fill="url(#bg)" />
  <!-- Wings -->
  <ellipse cx="35" cy="32" rx="14" ry="10" fill="rgba(255,255,255,0.3)" transform="rotate(-20,35,32)"/>
  <ellipse cx="65" cy="32" rx="14" ry="10" fill="rgba(255,255,255,0.3)" transform="rotate(20,65,32)"/>
  <!-- Body -->
  <ellipse cx="50" cy="55" rx="16" ry="20" fill="#F5D76E"/>
  <!-- Stripes -->
  <rect x="36" y="44" width="28" height="5" rx="2" fill="#2C3E50"/>
  <rect x="37" y="52" width="26" height="5" rx="2" fill="#2C3E50"/>
  <rect x="40" y="60" width="20" height="5" rx="2" fill="#2C3E50"/>
  <!-- Eyes -->
  <circle cx="44" cy="42" r="2.5" fill="#2C3E50"/>
  <circle cx="56" cy="42" r="2.5" fill="#2C3E50"/>
  <!-- Smile -->
  <path d="M45 48 Q50 52 55 48" fill="none" stroke="#2C3E50" stroke-width="1.5" stroke-linecap="round"/>
  <!-- Antennae -->
  <path d="M45 38 Q40 28 36 24" fill="none" stroke="#2C3E50" stroke-width="1.5" stroke-linecap="round"/>
  <circle cx="36" cy="24" r="2" fill="#2C3E50"/>
  <path d="M55 38 Q60 28 64 24" fill="none" stroke="#2C3E50" stroke-width="1.5" stroke-linecap="round"/>
  <circle cx="64" cy="24" r="2" fill="#2C3E50"/>
</svg>
